<svg xmlns="http://www.w3.org/2000/svg" width="1100" height="760"><rect width="100%" height="100%" fill="white"/><text x="550" y="30" text-anchor="middle" font-family="Arial" font-size="24" font-weight="bold">RC低通滤波器完整波特图</text><text x="90" y="43" font-family="Arial" font-size="16" font-weight="bold">幅频特性 |H(jω)| (dB)</text><line x1="90" y1="77.3" x2="1060" y2="77.3" stroke="#ddd"/><text x="80" y="81.3" text-anchor="end" font-family="Arial" font-size="12">0</text><line x1="90" y1="166.5" x2="1060" y2="166.5" stroke="#ddd"/><text x="80" y="170.5" text-anchor="end" font-family="Arial" font-size="12">-20</text><line x1="90" y1="255.8" x2="1060" y2="255.8" stroke="#ddd"/><text x="80" y="259.8" text-anchor="end" font-family="Arial" font-size="12">-40</text><line x1="90" y1="345.0" x2="1060" y2="345.0" stroke="#ddd"/><text x="80" y="349.0" text-anchor="end" font-family="Arial" font-size="12">-60</text><line x1="90" y1="55" x2="90" y2="345" stroke="#333"/><line x1="90" y1="345" x2="1060" y2="345" stroke="#333"/><text x="90" y="378" font-family="Arial" font-size="16" font-weight="bold">相频特性 ∠H(jω) (°)</text><line x1="90" y1="416.4" x2="1060" y2="416.4" stroke="#ddd"/><text x="80" y="420.4" text-anchor="end" font-family="Arial" font-size="12">0</text><line x1="90" y1="535.0" x2="1060" y2="535.0" stroke="#ddd"/><text x="80" y="539.0" text-anchor="end" font-family="Arial" font-size="12">-45</text><line x1="90" y1="653.6" x2="1060" y2="653.6" stroke="#ddd"/><text x="80" y="657.6" text-anchor="end" font-family="Arial" font-size="12">-90</text><line x1="90" y1="390" x2="90" y2="680" stroke="#333"/><line x1="90" y1="680" x2="1060" y2="680" stroke="#333"/><line x1="90.0" y1="55" x2="90.0" y2="680" stroke="#eee"/><text x="90.0" y="704" text-anchor="middle" font-family="Arial" font-size="12">10^1</text><line x1="284.0" y1="55" x2="284.0" y2="680" stroke="#eee"/><text x="284.0" y="704" text-anchor="middle" font-family="Arial" font-size="12">10^2</text><line x1="478.0" y1="55" x2="478.0" y2="680" stroke="#eee"/><text x="478.0" y="704" text-anchor="middle" font-family="Arial" font-size="12">10^3</text><line x1="672.0" y1="55" x2="672.0" y2="680" stroke="#eee"/><text x="672.0" y="704" text-anchor="middle" font-family="Arial" font-size="12">10^4</text><line x1="866.0" y1="55" x2="866.0" y2="680" stroke="#eee"/><text x="866.0" y="704" text-anchor="middle" font-family="Arial" font-size="12">10^5</text><line x1="1060.0" y1="55" x2="1060.0" y2="680" stroke="#eee"/><text x="1060.0" y="704" text-anchor="middle" font-family="Arial" font-size="12">10^6</text><path d="M90.00,77.31 L91.94,77.31 L93.88,77.31 L95.82,77.31 L97.76,77.31 L99.70,77.31 L101.64,77.31 L103.58,77.31 L105.52,77.31 L107.46,77.31 L109.40,77.31 L111.34,77.31 L113.28,77.31 L115.22,77.31 L117.16,77.31 L119.10,77.31 L121.04,77.31 L122.98,77.31 L124.92,77.31 L126.86,77.31 L128.80,77.31 L130.74,77.31 L132.68,77.31 L134.62,77.31 L136.56,77.31 L138.50,77.31 L140.44,77.31 L142.38,77.31 L144.32,77.31 L146.26,77.31 L148.20,77.31 L150.14,77.31 L152.08,77.31 L154.02,77.31 L155.96,77.31 L157.90,77.31 L159.84,77.31 L161.78,77.31 L163.72,77.31 L165.66,77.31 L167.60,77.31 L169.54,77.31 L171.48,77.31 L173.42,77.31 L175.36,77.31 L177.30,77.31 L179.24,77.31 L181.18,77.31 L183.12,77.31 L185.06,77.31 L187.00,77.32 L188.94,77.32 L190.88,77.32 L192.82,77.32 L194.76,77.32 L196.70,77.32 L198.64,77.32 L200.58,77.32 L202.52,77.32 L204.46,77.32 L206.40,77.32 L208.34,77.32 L210.28,77.32 L212.22,77.32 L214.16,77.32 L216.10,77.32 L218.04,77.32 L219.98,77.32 L221.92,77.33 L223.86,77.33 L225.80,77.33 L227.74,77.33 L229.68,77.33 L231.62,77.33 L233.56,77.33 L235.50,77.33 L237.44,77.33 L239.38,77.33 L241.32,77.34 L243.26,77.34 L245.20,77.34 L247.14,77.34 L249.08,77.34 L251.02,77.34 L252.96,77.34 L254.90,77.35 L256.84,77.35 L258.78,77.35 L260.72,77.35 L262.66,77.35 L264.60,77.36 L266.54,77.36 L268.48,77.36 L270.42,77.36 L272.36,77.37 L274.30,77.37 L276.24,77.37 L278.18,77.37 L280.12,77.38 L282.06,77.38 L284.00,77.38 L285.94,77.39 L287.88,77.39 L289.82,77.40 L291.76,77.40 L293.70,77.40 L295.64,77.41 L297.58,77.41 L299.52,77.42 L301.46,77.42 L303.40,77.43 L305.34,77.43 L307.28,77.44 L309.22,77.45 L311.16,77.45 L313.10,77.46 L315.04,77.47 L316.98,77.47 L318.92,77.48 L320.86,77.49 L322.80,77.50 L324.74,77.51 L326.68,77.52 L328.62,77.53 L330.56,77.54 L332.50,77.55 L334.44,77.56 L336.38,77.57 L338.32,77.58 L340.26,77.60 L342.20,77.61 L344.14,77.62 L346.08,77.64 L348.02,77.65 L349.96,77.67 L351.90,77.69 L353.84,77.71 L355.78,77.72 L357.72,77.74 L359.66,77.76 L361.60,77.78 L363.54,77.81 L365.48,77.83 L367.42,77.85 L369.36,77.88 L371.30,77.91 L373.24,77.93 L375.18,77.96 L377.12,77.99 L379.06,78.02 L381.00,78.06 L382.94,78.09 L384.88,78.13 L386.82,78.17 L388.76,78.21 L390.70,78.25 L392.64,78.29 L394.58,78.34 L396.52,78.38 L398.46,78.43 L400.40,78.48 L402.34,78.54 L404.28,78.59 L406.22,78.65 L408.16,78.71 L410.10,78.78 L412.04,78.84 L413.98,78.91 L415.92,78.99 L417.86,79.06 L419.80,79.14 L421.74,79.22 L423.68,79.31 L425.62,79.40 L427.56,79.49 L429.50,79.59 L431.44,79.69 L433.38,79.79 L435.32,79.90 L437.26,80.02 L439.20,80.14 L441.14,80.26 L443.08,80.39 L445.02,80.52 L446.96,80.66 L448.90,80.81 L450.84,80.96 L452.78,81.11 L454.72,81.27 L456.66,81.44 L458.60,81.62 L460.54,81.80 L462.48,81.99 L464.42,82.18 L466.36,82.38 L468.30,82.59 L470.24,82.81 L472.18,83.03 L474.12,83.27 L476.06,83.51 L478.00,83.75 L479.94,84.01 L481.88,84.28 L483.82,84.55 L485.76,84.83 L487.70,85.13 L489.64,85.43 L491.58,85.74 L493.52,86.06 L495.46,86.38 L497.40,86.72 L499.34,87.07 L501.28,87.43 L503.22,87.80 L505.16,88.18 L507.10,88.56 L509.04,88.96 L510.98,89.37 L512.92,89.79 L514.86,90.22 L516.80,90.66 L518.74,91.11 L520.68,91.57 L522.62,92.04 L524.56,92.52 L526.50,93.01 L528.44,93.51 L530.38,94.02 L532.32,94.54 L534.26,95.07 L536.20,95.61 L538.14,96.16 L540.08,96.72 L542.02,97.29 L543.96,97.87 L545.90,98.46 L547.84,99.05 L549.78,99.66 L551.72,100.27 L553.66,100.90 L555.60,101.53 L557.54,102.17 L559.48,102.82 L561.42,103.48 L563.36,104.14 L565.30,104.82 L567.24,105.50 L569.18,106.18 L571.12,106.88 L573.06,107.58 L575.00,108.29 L576.94,109.00 L578.88,109.73 L580.82,110.45 L582.76,111.19 L584.70,111.93 L586.64,112.67 L588.58,113.43 L590.52,114.18 L592.46,114.94 L594.40,115.71 L596.34,116.48 L598.28,117.26 L600.22,118.04 L602.16,118.83 L604.10,119.61 L606.04,120.41 L607.98,121.21 L609.92,122.01 L611.86,122.81 L613.80,123.62 L615.74,124.43 L617.68,125.25 L619.62,126.07 L621.56,126.89 L623.50,127.72 L625.44,128.54 L627.38,129.37 L629.32,130.21 L631.26,131.04 L633.20,131.88 L635.14,132.72 L637.08,133.56 L639.02,134.41 L640.96,135.25 L642.90,136.10 L644.84,136.95 L646.78,137.80 L648.72,138.66 L650.66,139.51 L652.60,140.37 L654.54,141.23 L656.48,142.09 L658.42,142.95 L660.36,143.81 L662.30,144.68 L664.24,145.54 L666.18,146.41 L668.12,147.28 L670.06,148.14 L672.00,149.01 L673.94,149.89 L675.88,150.76 L677.82,151.63 L679.76,152.50 L681.70,153.38 L683.64,154.25 L685.58,155.13 L687.52,156.00 L689.46,156.88 L691.40,157.76 L693.34,158.64 L695.28,159.52 L697.22,160.40 L699.16,161.28 L701.10,162.16 L703.04,163.04 L704.98,163.92 L706.92,164.80 L708.86,165.69 L710.80,166.57 L712.74,167.45 L714.68,168.34 L716.62,169.22 L718.56,170.11 L720.50,170.99 L722.44,171.88 L724.38,172.76 L726.32,173.65 L728.26,174.54 L730.20,175.42 L732.14,176.31 L734.08,177.20 L736.02,178.08 L737.96,178.97 L739.90,179.86 L741.84,180.75 L743.78,181.63 L745.72,182.52 L747.66,183.41 L749.60,184.30 L751.54,185.19 L753.48,186.08 L755.42,186.97 L757.36,187.86 L759.30,188.75 L761.24,189.63 L763.18,190.52 L765.12,191.41 L767.06,192.30 L769.00,193.19 L770.94,194.08 L772.88,194.97 L774.82,195.86 L776.76,196.76 L778.70,197.65 L780.64,198.54 L782.58,199.43 L784.52,200.32 L786.46,201.21 L788.40,202.10 L790.34,202.99 L792.28,203.88 L794.22,204.77 L796.16,205.66 L798.10,206.55 L800.04,207.45 L801.98,208.34 L803.92,209.23 L805.86,210.12 L807.80,211.01 L809.74,211.90 L811.68,212.79 L813.62,213.69 L815.56,214.58 L817.50,215.47 L819.44,216.36 L821.38,217.25 L823.32,218.14 L825.26,219.04 L827.20,219.93 L829.14,220.82 L831.08,221.71 L833.02,222.60 L834.96,223.49 L836.90,224.39 L838.84,225.28 L840.78,226.17 L842.72,227.06 L844.66,227.95 L846.60,228.85 L848.54,229.74 L850.48,230.63 L852.42,231.52 L854.36,232.41 L856.30,233.31 L858.24,234.20 L860.18,235.09 L862.12,235.98 L864.06,236.87 L866.00,237.77 L867.94,238.66 L869.88,239.55 L871.82,240.44 L873.76,241.33 L875.70,242.23 L877.64,243.12 L879.58,244.01 L881.52,244.90 L883.46,245.79 L885.40,246.69 L887.34,247.58 L889.28,248.47 L891.22,249.36 L893.16,250.26 L895.10,251.15 L897.04,252.04 L898.98,252.93 L900.92,253.82 L902.86,254.72 L904.80,255.61 L906.74,256.50 L908.68,257.39 L910.62,258.29 L912.56,259.18 L914.50,260.07 L916.44,260.96 L918.38,261.85 L920.32,262.75 L922.26,263.64 L924.20,264.53 L926.14,265.42 L928.08,266.32 L930.02,267.21 L931.96,268.10 L933.90,268.99 L935.84,269.88 L937.78,270.78 L939.72,271.67 L941.66,272.56 L943.60,273.45 L945.54,274.35 L947.48,275.24 L949.42,276.13 L951.36,277.02 L953.30,277.92 L955.24,278.81 L957.18,279.70 L959.12,280.59 L961.06,281.48 L963.00,282.38 L964.94,283.27 L966.88,284.16 L968.82,285.05 L970.76,285.95 L972.70,286.84 L974.64,287.73 L976.58,288.62 L978.52,289.51 L980.46,290.41 L982.40,291.30 L984.34,292.19 L986.28,293.08 L988.22,293.98 L990.16,294.87 L992.10,295.76 L994.04,296.65 L995.98,297.55 L997.92,298.44 L999.86,299.33 L1001.80,300.22 L1003.74,301.11 L1005.68,302.01 L1007.62,302.90 L1009.56,303.79 L1011.50,304.68 L1013.44,305.58 L1015.38,306.47 L1017.32,307.36 L1019.26,308.25 L1021.20,309.15 L1023.14,310.04 L1025.08,310.93 L1027.02,311.82 L1028.96,312.71 L1030.90,313.61 L1032.84,314.50 L1034.78,315.39 L1036.72,316.28 L1038.66,317.18 L1040.60,318.07 L1042.54,318.96 L1044.48,319.85 L1046.42,320.75 L1048.36,321.64 L1050.30,322.53 L1052.24,323.42 L1054.18,324.31 L1056.12,325.21 L1058.06,326.10 L1060.00,326.99" fill="none" stroke="#0666cc" stroke-width="3"/><path d="M90.00,417.31 L91.94,417.33 L93.88,417.36 L95.82,417.38 L97.76,417.40 L99.70,417.43 L101.64,417.45 L103.58,417.48 L105.52,417.50 L107.46,417.53 L109.40,417.56 L111.34,417.59 L113.28,417.61 L115.22,417.64 L117.16,417.67 L119.10,417.70 L121.04,417.74 L122.98,417.77 L124.92,417.80 L126.86,417.83 L128.80,417.87 L130.74,417.90 L132.68,417.94 L134.62,417.98 L136.56,418.01 L138.50,418.05 L140.44,418.09 L142.38,418.13 L144.32,418.17 L146.26,418.21 L148.20,418.26 L150.14,418.30 L152.08,418.35 L154.02,418.39 L155.96,418.44 L157.90,418.49 L159.84,418.54 L161.78,418.59 L163.72,418.64 L165.66,418.69 L167.60,418.75 L169.54,418.80 L171.48,418.86 L173.42,418.92 L175.36,418.98 L177.30,419.04 L179.24,419.10 L181.18,419.16 L183.12,419.23 L185.06,419.30 L187.00,419.36 L188.94,419.43 L190.88,419.51 L192.82,419.58 L194.76,419.65 L196.70,419.73 L198.64,419.81 L200.58,419.89 L202.52,419.97 L204.46,420.06 L206.40,420.14 L208.34,420.23 L210.28,420.32 L212.22,420.41 L214.16,420.51 L216.10,420.60 L218.04,420.70 L219.98,420.80 L221.92,420.90 L223.86,421.01 L225.80,421.12 L227.74,421.23 L229.68,421.34 L231.62,421.46 L233.56,421.58 L235.50,421.70 L237.44,421.82 L239.38,421.95 L241.32,422.08 L243.26,422.21 L245.20,422.35 L247.14,422.49 L249.08,422.63 L251.02,422.78 L252.96,422.93 L254.90,423.08 L256.84,423.23 L258.78,423.39 L260.72,423.56 L262.66,423.73 L264.60,423.90 L266.54,424.07 L268.48,424.25 L270.42,424.43 L272.36,424.62 L274.30,424.81 L276.24,425.01 L278.18,425.21 L280.12,425.42 L282.06,425.63 L284.00,425.84 L285.94,426.06 L287.88,426.29 L289.82,426.52 L291.76,426.75 L293.70,427.00 L295.64,427.24 L297.58,427.49 L299.52,427.75 L301.46,428.02 L303.40,428.29 L305.34,428.56 L307.28,428.85 L309.22,429.14 L311.16,429.43 L313.10,429.73 L315.04,430.04 L316.98,430.36 L318.92,430.69 L320.86,431.02 L322.80,431.36 L324.74,431.70 L326.68,432.06 L328.62,432.42 L330.56,432.79 L332.50,433.17 L334.44,433.56 L336.38,433.96 L338.32,434.36 L340.26,434.78 L342.20,435.20 L344.14,435.64 L346.08,436.08 L348.02,436.53 L349.96,437.00 L351.90,437.47 L353.84,437.96 L355.78,438.45 L357.72,438.96 L359.66,439.48 L361.60,440.01 L363.54,440.55 L365.48,441.10 L367.42,441.67 L369.36,442.25 L371.30,442.84 L373.24,443.44 L375.18,444.06 L377.12,444.69 L379.06,445.33 L381.00,445.99 L382.94,446.66 L384.88,447.35 L386.82,448.05 L388.76,448.77 L390.70,449.50 L392.64,450.24 L394.58,451.01 L396.52,451.78 L398.46,452.58 L400.40,453.39 L402.34,454.22 L404.28,455.06 L406.22,455.92 L408.16,456.80 L410.10,457.69 L412.04,458.61 L413.98,459.54 L415.92,460.49 L417.86,461.46 L419.80,462.45 L421.74,463.45 L423.68,464.48 L425.62,465.52 L427.56,466.58 L429.50,467.67 L431.44,468.77 L433.38,469.89 L435.32,471.03 L437.26,472.19 L439.20,473.38 L441.14,474.58 L443.08,475.80 L445.02,477.04 L446.96,478.30 L448.90,479.58 L450.84,480.89 L452.78,482.21 L454.72,483.55 L456.66,484.91 L458.60,486.29 L460.54,487.69 L462.48,489.11 L464.42,490.54 L466.36,492.00 L468.30,493.47 L470.24,494.96 L472.18,496.47 L474.12,498.00 L476.06,499.54 L478.00,501.10 L479.94,502.68 L481.88,504.27 L483.82,505.87 L485.76,507.49 L487.70,509.12 L489.64,510.76 L491.58,512.42 L493.52,514.09 L495.46,515.77 L497.40,517.45 L499.34,519.15 L501.28,520.85 L503.22,522.57 L505.16,524.29 L507.10,526.01 L509.04,527.74 L510.98,529.47 L512.92,531.21 L514.86,532.94 L516.80,534.68 L518.74,536.42 L520.68,538.16 L522.62,539.90 L524.56,541.63 L526.50,543.36 L528.44,545.09 L530.38,546.81 L532.32,548.52 L534.26,550.23 L536.20,551.93 L538.14,553.62 L540.08,555.30 L542.02,556.97 L543.96,558.63 L545.90,560.28 L547.84,561.92 L549.78,563.54 L551.72,565.15 L553.66,566.75 L555.60,568.33 L557.54,569.89 L559.48,571.44 L561.42,572.97 L563.36,574.49 L565.30,575.99 L567.24,577.47 L569.18,578.93 L571.12,580.37 L573.06,581.80 L575.00,583.20 L576.94,584.59 L578.88,585.96 L580.82,587.31 L582.76,588.64 L584.70,589.94 L586.64,591.23 L588.58,592.50 L590.52,593.75 L592.46,594.98 L594.40,596.19 L596.34,597.38 L598.28,598.55 L600.22,599.70 L602.16,600.82 L604.10,601.93 L606.04,603.02 L607.98,604.09 L609.92,605.15 L611.86,606.18 L613.80,607.19 L615.74,608.18 L617.68,609.16 L619.62,610.12 L621.56,611.05 L623.50,611.97 L625.44,612.88 L627.38,613.76 L629.32,614.63 L631.26,615.48 L633.20,616.31 L635.14,617.13 L637.08,617.93 L639.02,618.71 L640.96,619.48 L642.90,620.23 L644.84,620.97 L646.78,621.69 L648.72,622.40 L650.66,623.09 L652.60,623.77 L654.54,624.43 L656.48,625.08 L658.42,625.71 L660.36,626.34 L662.30,626.94 L664.24,627.54 L666.18,628.12 L668.12,628.69 L670.06,629.25 L672.00,629.80 L673.94,630.33 L675.88,630.85 L677.82,631.36 L679.76,631.86 L681.70,632.35 L683.64,632.83 L685.58,633.30 L687.52,633.76 L689.46,634.20 L691.40,634.64 L693.34,635.07 L695.28,635.49 L697.22,635.90 L699.16,636.30 L701.10,636.69 L703.04,637.07 L704.98,637.45 L706.92,637.81 L708.86,638.17 L710.80,638.52 L712.74,638.86 L714.68,639.19 L716.62,639.52 L718.56,639.84 L720.50,640.15 L722.44,640.46 L724.38,640.76 L726.32,641.05 L728.26,641.33 L730.20,641.61 L732.14,641.89 L734.08,642.15 L736.02,642.41 L737.96,642.67 L739.90,642.92 L741.84,643.16 L743.78,643.40 L745.72,643.63 L747.66,643.86 L749.60,644.08 L751.54,644.30 L753.48,644.51 L755.42,644.71 L757.36,644.92 L759.30,645.12 L761.24,645.31 L763.18,645.50 L765.12,645.68 L767.06,645.86 L769.00,646.04 L770.94,646.21 L772.88,646.38 L774.82,646.55 L776.76,646.71 L778.70,646.87 L780.64,647.02 L782.58,647.17 L784.52,647.32 L786.46,647.46 L788.40,647.60 L790.34,647.74 L792.28,647.87 L794.22,648.00 L796.16,648.13 L798.10,648.26 L800.04,648.38 L801.98,648.50 L803.92,648.62 L805.86,648.73 L807.80,648.84 L809.74,648.95 L811.68,649.06 L813.62,649.16 L815.56,649.26 L817.50,649.36 L819.44,649.46 L821.38,649.55 L823.32,649.65 L825.26,649.74 L827.20,649.83 L829.14,649.91 L831.08,650.00 L833.02,650.08 L834.96,650.16 L836.90,650.24 L838.84,650.32 L840.78,650.39 L842.72,650.47 L844.66,650.54 L846.60,650.61 L848.54,650.68 L850.48,650.75 L852.42,650.81 L854.36,650.88 L856.30,650.94 L858.24,651.00 L860.18,651.06 L862.12,651.12 L864.06,651.18 L866.00,651.23 L867.94,651.29 L869.88,651.34 L871.82,651.39 L873.76,651.44 L875.70,651.49 L877.64,651.54 L879.58,651.59 L881.52,651.64 L883.46,651.68 L885.40,651.73 L887.34,651.77 L889.28,651.81 L891.22,651.85 L893.16,651.89 L895.10,651.93 L897.04,651.97 L898.98,652.01 L900.92,652.05 L902.86,652.08 L904.80,652.12 L906.74,652.15 L908.68,652.19 L910.62,652.22 L912.56,652.25 L914.50,652.28 L916.44,652.32 L918.38,652.35 L920.32,652.37 L922.26,652.40 L924.20,652.43 L926.14,652.46 L928.08,652.49 L930.02,652.51 L931.96,652.54 L933.90,652.56 L935.84,652.59 L937.78,652.61 L939.72,652.63 L941.66,652.66 L943.60,652.68 L945.54,652.70 L947.48,652.72 L949.42,652.74 L951.36,652.76 L953.30,652.78 L955.24,652.80 L957.18,652.82 L959.12,652.84 L961.06,652.86 L963.00,652.88 L964.94,652.89 L966.88,652.91 L968.82,652.93 L970.76,652.94 L972.70,652.96 L974.64,652.97 L976.58,652.99 L978.52,653.00 L980.46,653.02 L982.40,653.03 L984.34,653.05 L986.28,653.06 L988.22,653.07 L990.16,653.09 L992.10,653.10 L994.04,653.11 L995.98,653.12 L997.92,653.13 L999.86,653.15 L1001.80,653.16 L1003.74,653.17 L1005.68,653.18 L1007.62,653.19 L1009.56,653.20 L1011.50,653.21 L1013.44,653.22 L1015.38,653.23 L1017.32,653.24 L1019.26,653.25 L1021.20,653.26 L1023.14,653.26 L1025.08,653.27 L1027.02,653.28 L1028.96,653.29 L1030.90,653.30 L1032.84,653.30 L1034.78,653.31 L1036.72,653.32 L1038.66,653.33 L1040.60,653.33 L1042.54,653.34 L1044.48,653.35 L1046.42,653.35 L1048.36,653.36 L1050.30,653.37 L1052.24,653.37 L1054.18,653.38 L1056.12,653.38 L1058.06,653.39 L1060.00,653.40" fill="none" stroke="#cc3333" stroke-width="3"/><line x1="517.2" y1="55" x2="517.2" y2="680" stroke="#555" stroke-dasharray="7,5"/><text x="525.2" y="73" font-family="Arial" font-size="13">fc=1591.5 Hz</text><text x="550" y="735" text-anchor="middle" font-family="Arial" font-size="13">频率 (Hz，对数刻度)</text><text x="850" y="90" fill="#0666cc" font-family="Arial" font-size="13">幅频曲线</text><text x="850" y="112" fill="#cc3333" font-family="Arial" font-size="13">相频曲线</text></svg>